<?xml version="1.0" standalone="no"?>
<!DOCTYPE svg PUBLIC "-//W3C//DTD SVG 20010904//EN"
 "http://www.w3.org/TR/2001/REC-SVG-20010904/DTD/svg10.dtd">
<svg version="1.0" xmlns="http://www.w3.org/2000/svg"
 width="159.000000pt" height="156.000000pt" viewBox="0 0 159.000000 156.000000"
 preserveAspectRatio="xMidYMid meet">
<metadata>
Created by potrace 1.10, written by Peter Selinger 2001-2011
</metadata>
<g transform="translate(0.000000,156.000000) scale(0.100000,-0.100000)"
fill="#207fa5" stroke="none">
<path d="M519 1441 l-274 -116 -107 -265 c-59 -146 -109 -270 -112 -276 -2 -6
48 -134 113 -284 l116 -274 275 -111 275 -112 274 116 274 117 108 268 c60
148 109 276 109 285 -1 9 -52 135 -114 280 l-112 265 -276 111 -275 112 -274
-116z m530 -60 l243 -98 106 -249 105 -248 -98 -243 c-54 -133 -101 -246 -104
-251 -7 -10 -481 -212 -497 -212 -6 0 -120 45 -255 99 l-244 100 -102 238
c-56 131 -102 245 -102 254 -1 8 43 125 97 259 l98 244 240 102 c131 56 246
103 254 103 8 0 125 -44 259 -98z"/>
<path d="M702 1092 c-110 -40 -165 -130 -166 -272 0 -68 4 -95 22 -135 38 -84
101 -134 185 -150 20 -4 37 -13 37 -20 0 -8 11 -27 25 -43 25 -30 77 -54 153
-71 41 -9 44 -8 53 16 14 37 13 39 -45 52 -52 12 -106 43 -106 61 0 5 13 11
29 15 47 10 105 60 136 117 40 73 47 196 16 279 -51 136 -198 201 -339 151z
m151 -66 c80 -29 120 -98 120 -206 0 -159 -110 -254 -238 -205 -76 28 -115
100 -115 209 0 153 108 246 233 202z"/>
</g>
</svg>
