<?xml version="1.0" standalone="no"?>
<!DOCTYPE svg PUBLIC "-//W3C//DTD SVG 20010904//EN"
 "http://www.w3.org/TR/2001/REC-SVG-20010904/DTD/svg10.dtd">
<svg version="1.0" xmlns="http://www.w3.org/2000/svg"
 width="172.000000pt" height="166.000000pt" viewBox="0 0 172.000000 166.000000"
 preserveAspectRatio="xMidYMid meet">
<metadata>
Created by potrace 1.10, written by Peter Selinger 2001-2011
</metadata>
<g transform="translate(0.000000,166.000000) scale(0.100000,-0.100000)"
fill="#ffffff" stroke="none">
<path d="M564 1512 l-271 -117 -111 -277 c-62 -152 -112 -283 -112 -290 0 -7
53 -137 118 -288 l117 -275 275 -112 c151 -61 282 -112 290 -112 8 0 139 53
290 117 l274 118 113 279 c62 153 113 283 113 289 0 6 -53 135 -118 286 l-117
275 -275 112 c-151 61 -284 112 -295 111 -11 0 -142 -52 -291 -116z m563 -103
l213 -84 100 -235 c55 -129 100 -241 100 -247 0 -20 -180 -467 -193 -480 -15
-15 -456 -203 -477 -203 -8 0 -121 43 -250 95 l-235 96 -101 239 -101 240 97
241 98 242 238 102 c221 94 241 101 269 90 17 -6 126 -49 242 -96z"/>
<path d="M800 1206 c-103 -23 -165 -72 -209 -166 -23 -48 -26 -68 -26 -155 0
-83 4 -109 24 -153 32 -70 103 -134 176 -157 39 -12 59 -24 65 -39 26 -70 109
-118 227 -131 l59 -7 15 55 16 55 -55 6 c-57 7 -122 32 -122 47 0 4 21 18 48
29 90 40 143 116 161 232 25 151 -38 301 -150 358 -29 15 -147 42 -169 39 -3
0 -30 -6 -60 -13z m161 -147 c45 -31 71 -93 72 -164 1 -78 -15 -124 -58 -165
-30 -29 -43 -34 -92 -38 -48 -3 -64 0 -92 20 -49 33 -73 78 -78 152 -8 100 30
180 102 212 39 18 108 10 146 -17z"/>
</g>
</svg>
