<?xml version="1.0" standalone="no"?>
<!DOCTYPE svg PUBLIC "-//W3C//DTD SVG 20010904//EN"
 "http://www.w3.org/TR/2001/REC-SVG-20010904/DTD/svg10.dtd">
<svg version="1.0" xmlns="http://www.w3.org/2000/svg"
 width="159.000000pt" height="156.000000pt" viewBox="0 0 159.000000 156.000000"
 preserveAspectRatio="xMidYMid meet">
<metadata>
Created by potrace 1.10, written by Peter Selinger 2001-2011
</metadata>
<g transform="translate(0.000000,156.000000) scale(0.100000,-0.100000)"
fill="#207fa5" stroke="none">
<path d="M714 1526 c-43 -18 -167 -70 -275 -116 l-196 -83 -112 -277 -112
-276 117 -276 117 -275 271 -108 c148 -60 277 -108 286 -108 8 1 134 52 280
115 l265 113 112 276 112 277 -98 228 c-54 126 -106 249 -116 274 l-18 45
-246 99 c-135 55 -260 105 -277 112 -27 11 -38 9 -110 -20z m210 -48 c72 -28
159 -64 194 -80 34 -15 68 -28 75 -28 6 0 41 -15 76 -33 l64 -32 65 -155 c65
-156 76 -183 127 -298 l28 -62 -40 -100 c-22 -55 -44 -96 -48 -92 -5 4 -5 1
-1 -5 4 -7 1 -23 -6 -35 -6 -13 -13 -29 -14 -36 -5 -31 -99 -249 -113 -263 -9
-9 -130 -64 -270 -124 l-255 -107 -95 37 c-53 21 -114 46 -136 56 -22 10 -83
35 -135 55 -122 47 -180 74 -180 85 0 5 -47 119 -105 255 -58 135 -105 253
-104 263 0 9 49 133 107 275 l107 259 60 21 c33 11 62 24 65 27 3 3 22 12 42
18 20 7 59 23 85 37 26 13 52 24 56 24 5 0 38 14 74 30 35 17 70 30 76 30 7 0
21 7 31 15 11 8 24 15 29 15 5 0 68 -23 141 -52z"/>
<path d="M555 1408 c-116 -49 -215 -91 -221 -92 -33 -6 -63 -50 -108 -161 -27
-66 -58 -140 -69 -165 -11 -25 -20 -47 -20 -50 0 -3 -15 -41 -33 -85 -29 -72
-31 -83 -20 -110 7 -16 41 -97 76 -180 123 -296 126 -301 184 -326 28 -12 53
-23 56 -24 14 -5 49 -20 90 -37 25 -11 65 -26 90 -35 25 -8 48 -20 52 -27 4
-6 8 -7 8 -2 0 5 7 3 15 -4 8 -7 15 -10 15 -7 0 4 28 -7 63 -22 57 -26 67 -27
98 -16 54 19 121 46 164 66 107 48 159 69 171 69 8 0 14 3 14 8 0 4 22 15 50
25 27 10 61 28 74 40 16 14 58 104 120 260 53 132 96 246 96 254 0 17 -185
457 -206 491 -19 29 -128 79 -334 154 -30 11 -59 24 -64 29 -6 5 -17 9 -25 9
-9 0 -29 7 -45 15 -15 8 -40 15 -55 14 -14 0 -120 -41 -236 -91z m481 -24
c131 -53 244 -101 251 -108 6 -6 57 -119 112 -251 l102 -240 -99 -245 -100
-245 -53 -26 c-30 -14 -142 -63 -249 -108 l-195 -82 -250 101 -250 101 -104
246 -104 247 98 242 c54 134 101 247 104 251 5 8 478 212 492 213 3 0 113 -43
245 -96z"/>
<path d="M719 1101 c-109 -34 -178 -126 -187 -252 -11 -159 61 -276 193 -311
32 -9 50 -20 55 -34 18 -46 94 -88 196 -109 28 -5 31 -3 41 29 l10 34 -59 12
c-55 12 -108 41 -108 59 0 5 13 11 29 14 45 9 113 68 140 122 23 44 26 61 26
155 0 97 -2 109 -29 158 -33 59 -76 96 -137 117 -44 16 -127 18 -170 6z m189
-40 c44 -23 83 -63 108 -111 28 -55 26 -211 -4 -268 -27 -50 -58 -80 -114
-107 -64 -31 -70 -50 -28 -86 19 -16 54 -35 78 -41 23 -6 42 -14 42 -19 0 -12
-5 -12 -72 7 -58 17 -94 44 -131 97 -10 16 -27 27 -40 27 -38 1 -102 36 -134
74 -39 48 -53 97 -54 189 -1 116 48 205 134 242 49 22 170 19 215 -4z"/>
<path d="M724 1046 c-81 -36 -121 -107 -123 -223 -2 -84 14 -137 58 -187 46
-52 146 -72 214 -43 124 53 165 254 79 382 -49 72 -151 104 -228 71z m176 -46
c48 -34 65 -84 65 -186 0 -82 -3 -94 -27 -132 -35 -52 -79 -76 -143 -76 -98
-1 -163 71 -172 188 -10 127 43 215 142 236 39 8 101 -6 135 -30z"/>
</g>
</svg>
